PathFileType	4	(X/Y/Z)	C:/Users/beibeiliu/ov580/test_trc/capture2\sequence.36_training_dense_left.trc
DataRate	CameraRate	NumFrames	NumMarkers	Units	OrigDataRate	OrigDataStartFrame	OrigNumFrames
120	120	21	19	mm	120	47	374
Frame#	Time	ThumbCMC			ThumbMCP			ThumbIP			ThumbTip			IndexMCP			IndexPIP			IndexTip			MiddleMCP			MiddlePIP			MiddleTip			RingMCP			RingPIP			RingTip			PinkyMCP			PinkyPIP			PinkyTip			BackHand1			BackHand2			BackHand3	
		X0	Y0	Z0	X1	Y1	Z1	X2	Y2	Z2	X3	Y3	Z3	X4	Y4	Z4	X5	Y5	Z5	X6	Y6	Z6	X7	Y7	Z7	X8	Y8	Z8	X9	Y9	Z9	X10	Y10	Z10	X11	Y11	Z11	X12	Y12	Z12	X13	Y13	Z13	X14	Y14	Z14	X15	Y15	Z15	X16	Y16	Z16	X17	Y17	Z17	X18	Y18	Z18	
46	0.383333	-149.158	57.1622	-0.15128	-132.784	69.8654	-20.9129	-127.218	71.7546	-45.8834	-120.455	63.3287	-70.5056	-145.349	40.4419	-69.7203	-116.898	44.5509	-81.5997	-103.489	48.2831	-48.7878	-134.123	23.7377	-72.7216	-101.202	32.0755	-69.8795	-102.288	36.6032	-35.6839	-123.79	1.19035	-63.6899	-96.4986	17.6247	-60.9631	-100.141	24.5449	-26.815	-118.612	-11.1032	-55.3246	-95.7644	2.33538	-53.9707	-99.3097	17.6506	-25.9569	-159.8	-2.37008	-18.9069	-163.734	-0.983159	13.8083	-170.091	29.5569	-6.06007	
47	0.391667	-148.219	57.6825	1.2467	-132.42	64.3137	-21.3916	-127.279	73.8459	-49.5726	-120.429	69.0448	-70.8853	-143.031	39.7237	-72.5607	-117.397	46.3195	-81.0416	-102.742	52.7166	-49.034	-135.12	20.8641	-70.2431	-101.584	27.8163	-71.1167	-102.743	37.6698	-35.1025	-120.999	3.1429	-65.8066	-96.6911	16.9456	-60.262	-101.211	25.3412	-25.8073	-121.087	-10.7125	-52.4867	-94.476	2.75441	-51.1975	-101.278	18.5015	-23.8128	-157.861	-3.71573	-15.5344	-165.372	0.0220324	10.0237	-171.439	28.5224	-6.5427	
48	0.4	-148.474	55.747	3.87229	-132.022	64.0566	-20.3053	-127.159	74.0443	-48.6834	-120.531	63.6688	-71.2178	-144.168	39.0879	-71.34	-114.681	43.8512	-80.0111	-102.224	50.3873	-48.8009	-133.959	18.9803	-70.3185	-102.469	31.6816	-71.0824	-104.486	39.5137	-34.8935	-124.912	5.1488	-63.0364	-93.8768	14.5061	-57.694	-104.916	28.3028	-27.1021	-117.77	-12.5162	-54.9365	-94.1272	5.18435	-50.7779	-98.2631	18.3718	-25.6959	-158.837	-6.17125	-16.0052	-163.265	-2.21105	9.28512	-170.337	23.8509	-5.11666	
49	0.408333	-148.566	58.4128	-0.588677	-132.948	63.9006	-20.6957	-127.474	71.269	-47.2211	-121.102	66.5043	-72.3498	-142.471	38.5509	-72.9881	-113.826	46.5377	-78.4361	-103.546	52.6941	-49.4225	-133.852	20.1844	-72.4007	-102.976	28.5895	-71.56	-103.696	34.6056	-32.9538	-123.364	2.57737	-65.1531	-95.4053	17.1653	-58.7296	-100.736	25.5789	-26.6928	-123.447	-10.735	-50.5318	-96.7974	3.95778	-53.8499	-96.9763	18.9892	-22.6238	-159.942	-5.25149	-19.4013	-163.43	0.714236	10.9293	-170.462	26.0261	-6.94603	
50	0.416667	-147.915	57.002	4.76638	-132.814	65.3795	-21.542	-126.596	70.8227	-45.7977	-120.675	70.1291	-71.1914	-145.422	41.0319	-68.575	-113.609	43.1	-78.8599	-102.485	52.334	-50.7651	-133.879	19.7065	-71.002	-102.585	28.2068	-71.6489	-100.916	33.9443	-36.2741	-125.76	3.29351	-63.7875	-94.2993	14.9759	-57.615	-103.101	25.8975	-25.6649	-119.567	-11.5831	-53.6966	-93.8104	0.249088	-52.7842	-96.0576	19.3617	-26.9109	-160.039	-4.99433	-16.8349	-164.653	-3.47597	10.4554	-170.984	25.1379	-6.97969	
51	0.425	-146.89	57.2121	4.92357	-131.125	68.4796	-19.6444	-125.247	69.8982	-45.541	-119.499	67.3099	-73.4786	-143.875	38.5088	-70.4426	-114.873	44.1824	-79.1043	-103.318	50.0982	-46.9129	-134.475	20.2089	-70.6812	-105.159	29.6674	-74.7637	-103.045	34.3067	-32.7608	-125.58	5.42387	-64.5471	-96.4675	17.3311	-59.3229	-100.121	23.4336	-27.5456	-121.062	-15.1003	-51.7677	-94.5733	3.11594	-51.6435	-100.285	18.8975	-27.0898	-159.596	-3.34074	-18.4378	-162.981	-4.37657	12.03	-171.79	27.4927	-7.69361	
52	0.433333	-147.674	52.8997	1.90696	-131.961	64.1677	-18.3031	-126.521	71.1937	-51.7079	-119.5	65.3148	-72.6669	-143.905	35.4396	-69.3126	-115.006	41.1214	-79.4502	-103.823	47.7961	-47.2913	-131.58	18.0981	-73.83	-103.947	29.0634	-73.9894	-102.879	38.0031	-36.5057	-124.49	0.0704599	-62.1751	-96.7125	15.7513	-59.5822	-101.485	24.0509	-26.3877	-119.996	-14.5924	-52.2351	-94.8838	2.94858	-50.8567	-99.5458	18.5098	-21.2663	-158.257	-3.46049	-19.409	-164.728	-5.39338	14.1683	-171.253	27.0465	-9.73712	
53	0.441667	-146.912	55.3286	4.13754	-132.319	64.9481	-23.739	-125.913	71.1215	-50.7205	-119.561	64.1953	-70.5513	-144.475	35.7696	-68.9629	-114.546	42.2603	-79.4344	-102.071	49.6137	-51.6565	-132.722	22.1661	-73.6193	-101.434	29.2346	-71.0426	-102.282	35.1214	-35.2137	-124.899	5.25661	-64.8028	-96.6654	13.4044	-59.934	-99.4164	26.0573	-29.8612	-122.417	-12.0872	-52.678	-96.403	3.5398	-52.8937	-98.6187	18.6372	-25.1818	-160.452	-7.18628	-15.5195	-164.844	-3.68478	11.9394	-171.282	28.0822	-9.83228	
54	0.45	-147.025	54.9664	-0.336094	-131.542	63.1497	-20.9493	-125.813	70.2189	-49.1529	-119.491	63.5858	-70.1837	-143.574	35.4553	-69.7859	-111.863	42.4751	-78.9323	-101.168	48.8541	-51.4131	-132.582	16.9653	-71.8568	-101.641	29.0743	-70.039	-102.67	36.261	-34.6479	-123.9	0.363808	-62.9511	-94.0212	12.3849	-57.3931	-100.417	24.8251	-29.3538	-119.773	-12.2605	-54.2878	-95.2998	2.24437	-52.1325	-101.036	17.1786	-25.4093	-159.841	-6.65705	-17.8705	-161.969	-4.56353	13.6774	-168.851	28.1526	-7.9194	
55	0.458333	-145.656	52.6907	1.75348	-130.777	64.146	-23.237	-124.989	66.7771	-47.5849	-118.78	66.4724	-73.024	-144.383	34.3032	-67.6009	-114.375	40.3121	-79.0631	-101.158	48.0396	-50.2604	-133.488	19.5823	-71.5289	-101.541	30.005	-71.5623	-99.6312	33.1328	-36.7654	-126.906	3.02891	-62.4138	-93.6555	14.3653	-57.33	-99.9872	24.5267	-28.7753	-120.276	-14.3101	-52.9697	-96.1319	1.29096	-53.6341	-101.17	15.7706	-20.9752	-158.962	-3.07552	-16.7809	-163.572	-0.9753	11.1819	-170.929	26.6198	-4.92234	
56	0.466667	-146.343	54.1268	0.710489	-130.913	65.2724	-21.8888	-125.085	70.4431	-48.0871	-118.58	67.3248	-69.8838	-143.708	36.0876	-69.6914	-115.461	42.1382	-80.219	-100.069	49.8654	-53.6168	-132.165	19.2301	-72.6871	-100.565	27.2704	-69.5847	-101.925	32.2354	-33.4649	-126.072	2.06636	-61.5829	-94.0968	13.4122	-57.4059	-101.709	25.985	-28.1863	-122.763	-13.0214	-49.6062	-96.1028	-0.175918	-53.6823	-99.1622	15.1633	-22.1325	-158.13	-7.62697	-20.0768	-164.252	-4.78068	14.435	-168.316	28.2382	-8.23657	
57	0.475	-145.579	52.3681	5.30199	-131.179	62.1224	-18.4302	-124.754	64.5811	-47.5676	-118.922	61.9564	-68.43	-141.648	35.9664	-70.6513	-114.053	38.7309	-78.9817	-100.388	48.7211	-51.2848	-132.113	17.2543	-71.888	-102.652	24.8969	-72.9623	-102.541	32.9667	-33.3313	-122.843	2.84117	-64.9003	-94.9328	14.5512	-60.202	-98.0918	24.5429	-30.8171	-120.722	-14.7917	-50.2215	-92.4132	-0.327223	-50.1069	-95.9293	15.3595	-22.065	-156.226	-7.0127	-16.2895	-164.542	-0.820648	12.5161	-169.073	25.7594	-5.39921	
58	0.483333	-145.757	56.2952	5.66911	-130.275	61.8711	-18.8507	-125.185	67.7354	-43.712	-119.336	62.5398	-69.7771	-143.666	35.2038	-67.6471	-115.857	38.2822	-80.4156	-99.4734	47.9738	-49.271	-133.265	16.9083	-69.0973	-100.381	26.9376	-68.8752	-101.783	34.5713	-33.4549	-125.354	0.747479	-62.1503	-94.7354	12.5038	-59.1251	-97.4918	23.9105	-30.9242	-120.348	-15.461	-50.6968	-94.9032	-0.559754	-52.3643	-98.5194	15.8296	-21.9039	-157.705	-2.8523	-19.0529	-162.911	-2.70101	14.4134	-168.726	25.0953	-6.64548	
59	0.491667	-145.095	56.9812	6.64493	-129.732	62.7478	-18.936	-124.604	67.3099	-44.479	-118.617	60.0604	-69.2261	-142.374	37.7614	-71.5887	-114.032	44.2525	-80.295	-99.3584	46.7492	-54.1424	-131.412	17.2202	-71.8061	-102.589	27.0142	-72.7731	-100.298	31.2228	-35.3495	-123.046	1.59093	-64.3801	-95.6604	15.3213	-59.0042	-100.674	23.6988	-26.0237	-121.23	-14.6793	-48.4908	-93.0597	1.02672	-49.2046	-98.6595	14.1913	-24.6918	-157.352	-7.43025	-14.0146	-163.364	-4.48043	13.747	-169.486	29.0817	-6.44279	
60	0.5	-145.895	56.8727	6.38909	-130.776	62.4055	-18.2626	-124.866	68.3302	-48.5871	-120.039	60.3811	-68.5811	-144.337	36.1436	-66.1237	-115.828	39.597	-80.9715	-99.3008	46.9769	-49.0597	-133.415	21.239	-71.3455	-103.312	26.0864	-73.02	-101.275	37.187	-34.4183	-123.657	1.28529	-63.5776	-94.1559	12.2957	-58.622	-99.3353	24.6109	-29.7599	-120.745	-12.5399	-49.6778	-93.1732	-1.19481	-50.5869	-95.0152	15.1646	-22.5709	-156.902	-4.3967	-18.6343	-162.893	-1.65465	15.3409	-166.467	24.0172	-5.52195	
61	0.508333	-145.487	56.6995	4.66361	-129.919	64.5704	-18.9533	-124.226	69.8368	-45.1831	-119.059	64.0045	-71.4482	-143.168	33.4061	-66.375	-113.652	38.7372	-79.6291	-99.659	49.9975	-50.7306	-130.9	20.0014	-71.9499	-100.361	26.2762	-69.4373	-101.488	35.3408	-34.1898	-122.557	-1.39473	-61.879	-94.5087	13.3998	-59.3745	-99.681	21.5992	-26.097	-117.956	-15.8887	-51.8787	-92.4221	0.541134	-50.3585	-97.785	15.765	-24.1897	-155.448	-6.50615	-18.8964	-161.191	-2.79347	11.8426	-169.905	28.4114	-4.69784	
62	0.516667	-145.013	56.0156	5.5994	-130.368	63.6463	-21.9951	-124.874	68.0722	-43.6719	-119.987	61.83	-71.4158	-141.396	35.0998	-69.8671	-113.983	40.4863	-80.214	-101.703	47.4718	-46.6059	-132.017	19.7304	-70.7263	-100.341	29.6637	-69.7154	-100.182	32.7997	-34.0275	-121.064	0.303717	-63.7145	-95.0255	14.4117	-60.9476	-100.968	23.336	-26.1381	-119.173	-14.4608	-51.2088	-92.2277	-0.0187497	-50.8233	-96.4717	16.3514	-21.3892	-158.554	-4.2675	-14.7376	-161.668	-0.526789	12.532	-167.776	26.7369	-5.68033	
63	0.525	-145.311	54.8144	4.39204	-132.025	64.6513	-20.485	-127.335	68.1923	-45.5072	-121.314	61.2747	-70.8797	-141.477	36.5241	-69.1329	-111.794	42.5888	-77.6746	-102.982	50.4143	-45.9408	-130.126	19.1535	-72.0326	-101.624	28.9397	-71.6188	-102.153	37.3204	-35.1041	-123.537	1.74484	-61.9894	-94.6628	16.239	-59.3016	-99.0664	23.5842	-27.2621	-121.099	-12.1567	-50.0604	-91.8569	-0.0138365	-50.9892	-98.5856	19.2985	-24.3211	-157.306	-2.86398	-16.5976	-161.876	-6.01406	14.3011	-169.147	26.9844	-8.23812	
64	0.533333	-147.272	51.9641	2.92407	-133.451	65.7981	-18.3204	-130.26	70.4873	-50.3555	-123.398	60.9749	-69.9653	-140.301	35.6215	-71.2746	-110.787	44.0483	-76.7315	-103.494	52.2759	-48.3473	-131.631	21.4821	-72.5375	-99.5465	29.794	-68.8358	-102.515	35.9713	-32.9799	-120.293	0.629234	-64.6511	-93.4174	15.546	-59.5583	-100.552	26.5792	-27.4463	-118.432	-10.0192	-51.2776	-91.4103	3.49074	-50.5223	-95.3697	16.9632	-21.0252	-156.47	-5.80461	-17.3839	-160.002	-4.11203	12.642	-167.021	26.5448	-7.26482	
65	0.541667	-147.512	52.7862	3.49817	-136.269	64.2998	-23.3574	-131.033	69.8522	-44.55	-126.384	61.9365	-70.4105	-144.169	36.6923	-67.5433	-112.42	42.5763	-76.518	-104.915	50.9662	-43.9698	-131.691	21.7284	-72.3231	-99.5933	27.6455	-69.0131	-99.2537	32.893	-34.7398	-121.136	5.65361	-64.4753	-93.8138	17.8028	-57.6932	-99.3132	25.1445	-26.2023	-115.974	-9.07426	-53.1498	-90.1554	2.03517	-48.1091	-98.3122	21.3429	-22.9044	-155.705	-5.54971	-15.2142	-160.995	-7.55262	10.2017	-168.241	22.8506	-5.94531	
66	0.55	-147.543	55.1006	3.95009	-137.659	67.685	-19.566	-134.002	70.4489	-47.0628	-128.893	63.8478	-72.2933	-144.583	38.5615	-67.061	-113.908	44.0823	-78.4558	-104.942	51.7262	-45.8672	-130.925	20.013	-72.3421	-102.415	30.7045	-73.3671	-101.642	34.7413	-33.305	-120.855	4.2548	-64.1867	-91.9907	14.6552	-58.2329	-97.2433	26.1186	-28.5329	-118.852	-12.4936	-50.5605	-92.8995	3.2247	-50.1154	-95.8702	15.7949	-20.0429	-157.836	-4.42694	-15.5043	-159.587	-5.35905	10.9353	-168.979	24.9187	-5.19972	
